{
    "asset" : {
        "generator" : "Khronos glTF Blender I/O v3.2.43",
        "version" : "2.0"
    },
    "scene" : 0,
    "scenes" : [
        {
            "name" : "Scene",
            "nodes" : [
                0
            ]
        }
    ],
    "nodes" : [
        {
            "mesh" : 0,
            "name" : "TQ_ARD-node",
            "rotation" : [
                0.7071067094802856,
                0,
                0,
                0.7071068286895752
            ],
            "translation" : [
                -0.0022674202919006348,
                -0.010015735402703285,
                -0.0015643835067749023
            ]
        }
    ],
    "materials" : [
        {
            "doubleSided" : true,
            "name" : "TQ_ARD_front",
            "pbrMetallicRoughness" : {
                "baseColorTexture" : {
                    "index" : 0
                },
                "metallicFactor" : 0,
                "roughnessFactor" : 0.5
            }
        },
        {
            "doubleSided" : true,
            "name" : "TQ_ARD_back",
            "pbrMetallicRoughness" : {
                "baseColorFactor" : [
                    0.9960784912109375,
                    0.9960784912109375,
                    0.9960784912109375,
                    1
                ],
                "metallicFactor" : 0
            }
        },
        {
            "doubleSided" : true,
            "name" : "TQ_ARD_edge",
            "pbrMetallicRoughness" : {
                "baseColorTexture" : {
                    "index" : 1
                },
                "metallicFactor" : 0,
                "roughnessFactor" : 0.5
            }
        }
    ],
    "meshes" : [
        {
            "name" : "TQ_ARD-geom",
            "primitives" : [
                {
                    "attributes" : {
                        "POSITION" : 0,
                        "NORMAL" : 1,
                        "TEXCOORD_0" : 2
                    },
                    "indices" : 3,
                    "material" : 0
                },
                {
                    "attributes" : {
                        "POSITION" : 4,
                        "NORMAL" : 5,
                        "TEXCOORD_0" : 6
                    },
                    "indices" : 7,
                    "material" : 1
                },
                {
                    "attributes" : {
                        "POSITION" : 8,
                        "NORMAL" : 9,
                        "TEXCOORD_0" : 10
                    },
                    "indices" : 11,
                    "material" : 2
                }
            ]
        }
    ],
    "textures" : [
        {
            "sampler" : 0,
            "source" : 0
        },
        {
            "sampler" : 0,
            "source" : 1
        }
    ],
    "images" : [
        {
            "bufferView" : 4,
            "mimeType" : "image/png",
            "name" : "11-01"
        },
        {
            "bufferView" : 13,
            "mimeType" : "image/png",
            "name" : "TQ_ARD-I1"
        }
    ],
    "accessors" : [
        {
            "bufferView" : 0,
            "componentType" : 5126,
            "count" : 967,
            "max" : [
                0.1235722005367279,
                0.17142023146152496,
                0.028138741850852966
            ],
            "min" : [
                -0.12360149621963501,
                -0.17275677621364594,
                -0.05545196309685707
            ],
            "type" : "VEC3"
        },
        {
            "bufferView" : 1,
            "componentType" : 5126,
            "count" : 967,
            "type" : "VEC3"
        },
        {
            "bufferView" : 2,
            "componentType" : 5126,
            "count" : 967,
            "type" : "VEC2"
        },
        {
            "bufferView" : 3,
            "componentType" : 5123,
            "count" : 1944,
            "type" : "SCALAR"
        },
        {
            "bufferView" : 5,
            "componentType" : 5126,
            "count" : 783,
            "max" : [
                0.12298306822776794,
                0.16936780512332916,
                0.028138739988207817
            ],
            "min" : [
                -0.12301594018936157,
                -0.17070430517196655,
                -0.053864944726228714
            ],
            "type" : "VEC3"
        },
        {
            "bufferView" : 6,
            "componentType" : 5126,
            "count" : 783,
            "type" : "VEC3"
        },
        {
            "bufferView" : 7,
            "componentType" : 5126,
            "count" : 783,
            "type" : "VEC2"
        },
        {
            "bufferView" : 8,
            "componentType" : 5123,
            "count" : 1944,
            "type" : "SCALAR"
        },
        {
            "bufferView" : 9,
            "componentType" : 5126,
            "count" : 1391,
            "max" : [
                0.1235722005367279,
                0.17142023146152496,
                0.028138741850852966
            ],
            "min" : [
                -0.12360149621963501,
                -0.17275677621364594,
                -0.05545196309685707
            ],
            "type" : "VEC3"
        },
        {
            "bufferView" : 10,
            "componentType" : 5126,
            "count" : 1391,
            "type" : "VEC3"
        },
        {
            "bufferView" : 11,
            "componentType" : 5126,
            "count" : 1391,
            "type" : "VEC2"
        },
        {
            "bufferView" : 12,
            "componentType" : 5123,
            "count" : 2220,
            "type" : "SCALAR"
        }
    ],
    "bufferViews" : [
        {
            "buffer" : 0,
            "byteLength" : 11604,
            "byteOffset" : 0
        },
        {
            "buffer" : 0,
            "byteLength" : 11604,
            "byteOffset" : 11604
        },
        {
            "buffer" : 0,
            "byteLength" : 7736,
            "byteOffset" : 23208
        },
        {
            "buffer" : 0,
            "byteLength" : 3888,
            "byteOffset" : 30944
        },
        {
            "buffer" : 0,
            "byteLength" : 1359787,
            "byteOffset" : 34832
        },
        {
            "buffer" : 0,
            "byteLength" : 9396,
            "byteOffset" : 1394620
        },
        {
            "buffer" : 0,
            "byteLength" : 9396,
            "byteOffset" : 1404016
        },
        {
            "buffer" : 0,
            "byteLength" : 6264,
            "byteOffset" : 1413412
        },
        {
            "buffer" : 0,
            "byteLength" : 3888,
            "byteOffset" : 1419676
        },
        {
            "buffer" : 0,
            "byteLength" : 16692,
            "byteOffset" : 1423564
        },
        {
            "buffer" : 0,
            "byteLength" : 16692,
            "byteOffset" : 1440256
        },
        {
            "buffer" : 0,
            "byteLength" : 11128,
            "byteOffset" : 1456948
        },
        {
            "buffer" : 0,
            "byteLength" : 4440,
            "byteOffset" : 1468076
        },
        {
            "buffer" : 0,
            "byteLength" : 767,
            "byteOffset" : 1472516
        }
    ],
    "samplers" : [
        {
            "magFilter" : 9729,
            "minFilter" : 9987
        }
    ],
    "buffers" : [
        {
            "byteLength" : 1473284,
            "uri" : "data:application/octet-stream;base64,"
        }
    ]
}
